<svg width="38px" height="19px" viewBox="0 0 37 19" xmlns="http://www.w3.org/2000/svg"><g fill="none" fill-rule="evenodd"><path d="m134.7 52.737c2.809 0 5.065-2.675 6.873-4.979-2.056-2.991-3.812-5.664-7.123-5.664-2.709 0-4.663 2.202-4.663 5.505 0 2.778 2.057 5.138 4.814 5.138h.1m27.303-5.502c0 6.04-4.216 9.595-8.627 9.595-2.828 0-5.95-1.135-9.422-6.04-2.677 3.456-5.404 6.04-9.619 6.04-4.413 0-8.478-3.715-8.478-9.337 0-5.623 3.917-9.492 8.974-9.492 3.966 0 6.49 2.272 9.117 5.881 2.082-2.424 4.964-5.931 9.725-5.881 4.611.052 8.33 3.611 8.33 9.182v.052m-8.843-5.141c-2.809 0-5.066 2.675-6.873 4.979 2.056 2.99 3.812 5.664 7.123 5.664 2.709 0 4.663-2.202 4.663-5.505 0-2.778-2.057-5.138-4.814-5.138h-.1" transform="translate(-125-38)" fill="#d8262c"/></g></svg>
